<svg width="20" height="20" viewBox="0 0 20 20" fill="none" xmlns="http://www.w3.org/2000/svg">
<path d="M2.5 10.8333C2.5 10.6123 2.5878 10.4004 2.74408 10.2441C2.90036 10.0878 3.11232 10 3.33333 10H6.66667C6.88768 10 7.09964 10.0878 7.25592 10.2441C7.4122 10.4004 7.5 10.6123 7.5 10.8333V15.8333C7.5 16.0543 7.4122 16.2663 7.25592 16.4226C7.09964 16.5789 6.88768 16.6667 6.66667 16.6667H3.33333C3.11232 16.6667 2.90036 16.5789 2.74408 16.4226C2.5878 16.2663 2.5 16.0543 2.5 15.8333V10.8333Z" stroke="black" stroke-width="1.6" stroke-linecap="round" stroke-linejoin="round"/>
<path d="M7.5 7.49984C7.5 7.27882 7.5878 7.06686 7.74408 6.91058C7.90036 6.7543 8.11232 6.6665 8.33333 6.6665H11.6667C11.8877 6.6665 12.0996 6.7543 12.2559 6.91058C12.4122 7.06686 12.5 7.27882 12.5 7.49984V15.8332C12.5 16.0542 12.4122 16.2661 12.2559 16.4224C12.0996 16.5787 11.8877 16.6665 11.6667 16.6665H8.33333C8.11232 16.6665 7.90036 16.5787 7.74408 16.4224C7.5878 16.2661 7.5 16.0542 7.5 15.8332V7.49984Z" stroke="black" stroke-width="1.6" stroke-linecap="round" stroke-linejoin="round"/>
<path d="M12.5 4.16659C12.5 3.94557 12.5878 3.73361 12.7441 3.57733C12.9004 3.42105 13.1123 3.33325 13.3333 3.33325H16.6667C16.8877 3.33325 17.0996 3.42105 17.2559 3.57733C17.4122 3.73361 17.5 3.94557 17.5 4.16659V15.8333C17.5 16.0543 17.4122 16.2662 17.2559 16.4225C17.0996 16.5788 16.8877 16.6666 16.6667 16.6666H13.3333C13.1123 16.6666 12.9004 16.5788 12.7441 16.4225C12.5878 16.2662 12.5 16.0543 12.5 15.8333V4.16659Z" stroke="black" stroke-width="1.6" stroke-linecap="round" stroke-linejoin="round"/>
<path d="M3.3335 16.6665H15.0002" stroke="black" stroke-width="1.6" stroke-linecap="round" stroke-linejoin="round"/>
</svg>
