<svg width="48" height="48" viewBox="0 0 48 48" fill="none" xmlns="http://www.w3.org/2000/svg">
<path opacity="0.38" d="M23.9998 44C35.0455 44 43.9998 35.0457 43.9998 24C43.9998 12.9543 35.0455 4 23.9998 4C12.9541 4 3.99976 12.9543 3.99976 24C3.99976 35.0457 12.9541 44 23.9998 44Z" fill="black" stroke="black" stroke-width="1.6" stroke-linecap="round" stroke-linejoin="round"/>
<path d="M12 39C12 40.1935 13.2643 41.3381 15.5147 42.182C17.7652 43.0259 20.8174 43.5 24 43.5C27.1826 43.5 30.2348 43.0259 32.4853 42.182C34.7357 41.3381 36 40.1935 36 39" fill="white"/>
<path d="M36 40C36 36.8174 34.7357 33.7652 32.4853 31.5147C30.2348 29.2643 27.1826 28 24 28C20.8174 28 17.7652 29.2643 15.5147 31.5147C13.2643 33.7652 12 36.8174 12 40" fill="white"/>
<path d="M36 40C36 36.8174 34.7357 33.7652 32.4853 31.5147C30.2348 29.2643 27.1826 28 24 28C20.8174 28 17.7652 29.2643 15.5147 31.5147C13.2643 33.7652 12 36.8174 12 40" stroke="black" stroke-width="1.6" stroke-linecap="round" stroke-linejoin="round"/>
<path d="M23.9998 28C28.418 28 31.9998 24.4183 31.9998 20C31.9998 15.5817 28.418 12 23.9998 12C19.5815 12 15.9998 15.5817 15.9998 20C15.9998 24.4183 19.5815 28 23.9998 28Z" fill="white" stroke="black" stroke-width="1.6" stroke-linecap="round" stroke-linejoin="round"/>
<path d="M23.9998 44C35.0455 44 43.9998 35.0457 43.9998 24C43.9998 12.9543 35.0455 4 23.9998 4C12.9541 4 3.99976 12.9543 3.99976 24C3.99976 35.0457 12.9541 44 23.9998 44Z" stroke="black" stroke-width="1.6" stroke-linecap="round" stroke-linejoin="round"/>
</svg>
