<svg width="20" height="20" viewBox="0 0 20 20" fill="none" xmlns="http://www.w3.org/2000/svg">
<path d="M10.0002 5H5.00016C4.55814 5 4.13421 5.17559 3.82165 5.48816C3.50909 5.80072 3.3335 6.22464 3.3335 6.66667V15C3.3335 15.442 3.50909 15.866 3.82165 16.1785C4.13421 16.4911 4.55814 16.6667 5.00016 16.6667H13.3335C13.7755 16.6667 14.1994 16.4911 14.512 16.1785C14.8246 15.866 15.0002 15.442 15.0002 15V10" stroke="black" stroke-width="1.6" stroke-linecap="round" stroke-linejoin="round"/>
<path d="M14.991 3.50336C15.0864 3.39055 15.2043 3.29872 15.3373 3.23374C15.4704 3.16875 15.6156 3.13203 15.7637 3.12591C15.9117 3.1198 16.0595 3.14442 16.1975 3.19821C16.3355 3.252 16.4607 3.33378 16.5651 3.43833C16.6696 3.54289 16.7509 3.66793 16.8041 3.80548C16.8572 3.94303 16.8809 4.09008 16.8737 4.23725C16.8665 4.38442 16.8286 4.52849 16.7623 4.66027C16.696 4.79205 16.6028 4.90866 16.4886 5.00265L11.4342 10.0628L9.375 10.625L9.9366 8.56347L14.991 3.50336Z" stroke="black" stroke-width="1.6" stroke-linecap="round" stroke-linejoin="round"/>
</svg>
