<svg width="20" height="20" viewBox="0 0 20 20" fill="none" xmlns="http://www.w3.org/2000/svg">
<path d="M16.6666 5.83325H9.16663" stroke="black" stroke-width="1.6" stroke-linecap="round" stroke-linejoin="round"/>
<path d="M11.6666 14.1665H4.16663" stroke="black" stroke-width="1.6" stroke-linecap="round" stroke-linejoin="round"/>
<path d="M14.1666 16.6665C15.5473 16.6665 16.6666 15.5472 16.6666 14.1665C16.6666 12.7858 15.5473 11.6665 14.1666 11.6665C12.7859 11.6665 11.6666 12.7858 11.6666 14.1665C11.6666 15.5472 12.7859 16.6665 14.1666 16.6665Z" stroke="black" stroke-width="1.6" stroke-linecap="round" stroke-linejoin="round"/>
<path d="M5.83337 8.33325C7.21409 8.33325 8.33337 7.21396 8.33337 5.83325C8.33337 4.45254 7.21409 3.33325 5.83337 3.33325C4.45266 3.33325 3.33337 4.45254 3.33337 5.83325C3.33337 7.21396 4.45266 8.33325 5.83337 8.33325Z" stroke="black" stroke-width="1.6" stroke-linecap="round" stroke-linejoin="round"/>
</svg>
