<svg width="20" height="20" viewBox="0 0 20 20" fill="none" xmlns="http://www.w3.org/2000/svg">
<path d="M16.63 4.4574C16.2469 4.07416 15.7921 3.77014 15.2915 3.56272C14.7909 3.3553 14.2543 3.24854 13.7125 3.24854C13.1706 3.24854 12.634 3.3553 12.1335 3.56272C11.6329 3.77014 11.178 4.07416 10.795 4.4574L9.99997 5.2524L9.20497 4.4574C8.4312 3.68364 7.38174 3.24894 6.28747 3.24894C5.19319 3.24894 4.14374 3.68364 3.36997 4.4574C2.5962 5.23117 2.1615 6.28063 2.1615 7.3749C2.1615 8.46918 2.5962 9.51864 3.36997 10.2924L4.16497 11.0874L9.99997 16.9224L15.835 11.0874L16.63 10.2924C17.0132 9.90934 17.3172 9.45451 17.5247 8.95392C17.7321 8.45333 17.8388 7.91677 17.8388 7.3749C17.8388 6.83304 17.7321 6.29648 17.5247 5.79589C17.3172 5.29529 17.0132 4.84047 16.63 4.4574Z" stroke="black" stroke-width="1.6" stroke-linecap="round" stroke-linejoin="round"/>
</svg>
