<svg width="203" height="202" viewBox="0 0 203 202" fill="none" xmlns="http://www.w3.org/2000/svg">
<path opacity="0.38" d="M101.499 201C156.727 201 201.499 156.228 201.499 101C201.499 45.7715 156.727 1 101.499 1C46.2703 1 1.49878 45.7715 1.49878 101C1.49878 156.228 46.2703 201 101.499 201Z" fill="#121212" stroke="#121212" stroke-width="1.6" stroke-linecap="round" stroke-linejoin="round"/>
<path d="M41.5 176C41.5 181.967 47.8214 187.69 59.0736 191.91C70.3258 196.129 85.587 198.5 101.5 198.5C117.413 198.5 132.674 196.129 143.926 191.91C155.179 187.69 161.5 181.967 161.5 176" fill="white"/>
<path d="M161.5 181C161.5 165.087 155.179 149.826 143.926 138.574C132.674 127.321 117.413 121 101.5 121C85.587 121 70.3258 127.321 59.0736 138.574C47.8214 149.826 41.5 165.087 41.5 181" fill="white"/>
<path d="M161.5 181C161.5 165.087 155.179 149.826 143.926 138.574C132.674 127.321 117.413 121 101.5 121C85.587 121 70.3258 127.321 59.0736 138.574C47.8214 149.826 41.5 165.087 41.5 181" stroke="#121212" stroke-width="1.6" stroke-linecap="round" stroke-linejoin="round"/>
<path d="M101.499 121C123.59 121 141.499 103.091 141.499 81C141.499 58.9086 123.59 41 101.499 41C79.4074 41 61.4988 58.9086 61.4988 81C61.4988 103.091 79.4074 121 101.499 121Z" fill="white" stroke="#121212" stroke-width="1.6" stroke-linecap="round" stroke-linejoin="round"/>
<path d="M101.499 201C156.727 201 201.499 156.228 201.499 101C201.499 45.7715 156.727 1 101.499 1C46.2703 1 1.49878 45.7715 1.49878 101C1.49878 156.228 46.2703 201 101.499 201Z" stroke="#121212" stroke-width="1.6" stroke-linecap="round" stroke-linejoin="round"/>
</svg>
