<svg width="64" height="64" viewBox="0 0 64 64" fill="none" xmlns="http://www.w3.org/2000/svg">
<rect width="64" height="64" rx="32" fill="#E6F0FB"/>
<path d="M14 34C14 33.4696 14.2107 32.9609 14.5858 32.5858C14.9609 32.2107 15.4696 32 16 32H24C24.5304 32 25.0391 32.2107 25.4142 32.5858C25.7893 32.9609 26 33.4696 26 34V46C26 46.5304 25.7893 47.0391 25.4142 47.4142C25.0391 47.7893 24.5304 48 24 48H16C15.4696 48 14.9609 47.7893 14.5858 47.4142C14.2107 47.0391 14 46.5304 14 46V34Z" stroke="#427AC6" stroke-width="1.6" stroke-linecap="round" stroke-linejoin="round"/>
<path d="M26 26C26 25.4696 26.2107 24.9609 26.5858 24.5858C26.9609 24.2107 27.4696 24 28 24H36C36.5304 24 37.0391 24.2107 37.4142 24.5858C37.7893 24.9609 38 25.4696 38 26V46C38 46.5304 37.7893 47.0391 37.4142 47.4142C37.0391 47.7893 36.5304 48 36 48H28C27.4696 48 26.9609 47.7893 26.5858 47.4142C26.2107 47.0391 26 46.5304 26 46V26Z" stroke="#427AC6" stroke-width="1.6" stroke-linecap="round" stroke-linejoin="round"/>
<path d="M38 18C38 17.4696 38.2107 16.9609 38.5858 16.5858C38.9609 16.2107 39.4696 16 40 16H48C48.5304 16 49.0391 16.2107 49.4142 16.5858C49.7893 16.9609 50 17.4696 50 18V46C50 46.5304 49.7893 47.0391 49.4142 47.4142C49.0391 47.7893 48.5304 48 48 48H40C39.4696 48 38.9609 47.7893 38.5858 47.4142C38.2107 47.0391 38 46.5304 38 46V18Z" stroke="#427AC6" stroke-width="1.6" stroke-linecap="round" stroke-linejoin="round"/>
<path d="M16.0002 48H44.0002" stroke="#427AC6" stroke-width="1.6" stroke-linecap="round" stroke-linejoin="round"/>
</svg>
