<svg width="64" height="64" viewBox="0 0 64 64" fill="none" xmlns="http://www.w3.org/2000/svg">
<rect width="64" height="64" rx="32" fill="#E6F0FB"/>
<path d="M25.25 32C25.25 32.1989 25.171 32.3897 25.0303 32.5303C24.8897 32.671 24.6989 32.75 24.5 32.75C24.3011 32.75 24.1103 32.671 23.9697 32.5303C23.829 32.3897 23.75 32.1989 23.75 32C23.75 31.8011 23.829 31.6103 23.9697 31.4697C24.1103 31.329 24.3011 31.25 24.5 31.25C24.6989 31.25 24.8897 31.329 25.0303 31.4697C25.171 31.6103 25.25 31.8011 25.25 32ZM25.25 32H24.5M32.75 32C32.75 32.1989 32.671 32.3897 32.5303 32.5303C32.3897 32.671 32.1989 32.75 32 32.75C31.8011 32.75 31.6103 32.671 31.4697 32.5303C31.329 32.3897 31.25 32.1989 31.25 32C31.25 31.8011 31.329 31.6103 31.4697 31.4697C31.6103 31.329 31.8011 31.25 32 31.25C32.1989 31.25 32.3897 31.329 32.5303 31.4697C32.671 31.6103 32.75 31.8011 32.75 32ZM32.75 32H32M40.25 32C40.25 32.1989 40.171 32.3897 40.0303 32.5303C39.8897 32.671 39.6989 32.75 39.5 32.75C39.3011 32.75 39.1103 32.671 38.9697 32.5303C38.829 32.3897 38.75 32.1989 38.75 32C38.75 31.8011 38.829 31.6103 38.9697 31.4697C39.1103 31.329 39.3011 31.25 39.5 31.25C39.6989 31.25 39.8897 31.329 40.0303 31.4697C40.171 31.6103 40.25 31.8011 40.25 32ZM40.25 32H39.5M50 32C50 41.112 41.94 48.5 32 48.5C30.2744 48.5021 28.5561 48.2755 26.89 47.826C24.5415 49.4777 21.6767 50.2282 18.82 49.94C18.5024 49.9094 18.1861 49.866 17.872 49.81C18.8577 48.6483 19.5309 47.2543 19.828 45.76C20.008 44.846 19.562 43.958 18.894 43.308C15.86 40.356 14 36.378 14 32C14 22.888 22.06 15.5 32 15.5C41.94 15.5 50 22.888 50 32Z" stroke="#427AC6" stroke-width="1.6" stroke-linecap="round" stroke-linejoin="round"/>
</svg>
