<svg width="62" height="28" viewBox="0 0 62 28" fill="none" xmlns="http://www.w3.org/2000/svg">
<rect x="0.5" y="0.5" width="61" height="27" rx="5.5" stroke="#FB2C36"/>
<path d="M10.6666 16.666V17.3327C10.6666 17.8631 10.8773 18.3718 11.2524 18.7469C11.6275 19.122 12.1362 19.3327 12.6666 19.3327H19.3333C19.8637 19.3327 20.3724 19.122 20.7475 18.7469C21.1226 18.3718 21.3333 17.8631 21.3333 17.3327V16.666M18.6666 13.9993L16 16.666M16 16.666L13.3333 13.9993M16 16.666V8.66602" stroke="#FB2C36" stroke-width="1.6" stroke-linecap="round" stroke-linejoin="round"/>
<path d="M29.0938 9.10156H32.457C33.2044 9.10156 33.8311 9.23828 34.3369 9.51172C34.8428 9.78516 35.2188 10.1589 35.4648 10.6328C35.7109 11.1022 35.834 11.64 35.834 12.2461C35.834 12.8477 35.7109 13.3877 35.4648 13.8662C35.2188 14.3402 34.8428 14.7161 34.3369 14.9941C33.8356 15.2676 33.2135 15.4043 32.4707 15.4043H30.3242V19H29.0938V9.10156ZM32.416 14.3105C33.1634 14.3105 33.7171 14.1237 34.0771 13.75C34.4372 13.3717 34.6172 12.8704 34.6172 12.2461C34.6172 11.6172 34.4372 11.1182 34.0771 10.749C33.7171 10.3799 33.1589 10.1953 32.4023 10.1953H30.3242V14.3105H32.416ZM37.5566 19V9.10156H40.7559C41.7083 9.10156 42.5286 9.2998 43.2168 9.69629C43.9095 10.0882 44.4382 10.6556 44.8027 11.3984C45.1673 12.1367 45.3496 13.0163 45.3496 14.0371C45.3496 15.0671 45.165 15.9535 44.7959 16.6963C44.4268 17.4391 43.889 18.0088 43.1826 18.4053C42.4762 18.8018 41.6263 19 40.6328 19H37.5566ZM40.5508 17.9062C41.7448 17.9062 42.6426 17.569 43.2441 16.8945C43.8457 16.2201 44.1465 15.2676 44.1465 14.0371C44.1465 12.8203 43.8525 11.877 43.2646 11.207C42.6768 10.5326 41.8132 10.1953 40.6738 10.1953H38.7871V17.9062H40.5508ZM47.1543 9.10156H53.1152V10.1953H48.3848V13.5039H52.6641V14.584H48.3848V19H47.1543V9.10156Z" fill="#FB2C36"/>
</svg>
