<svg width="64" height="64" viewBox="0 0 64 64" fill="none" xmlns="http://www.w3.org/2000/svg">
<rect width="64" height="64" rx="32" fill="#E6F0FB"/>
<path d="M49.68 17.2197C48.6585 16.1978 47.4456 15.387 46.1107 14.8339C44.7758 14.2808 43.345 13.9961 41.9 13.9961C40.455 13.9961 39.0242 14.2808 37.6893 14.8339C36.3544 15.387 35.1415 16.1978 34.12 17.2197L32 19.3397L29.88 17.2197C27.8166 15.1564 25.0181 13.9972 22.1 13.9972C19.1819 13.9972 16.3834 15.1564 14.32 17.2197C12.2566 19.2831 11.0974 22.0817 11.0974 24.9997C11.0974 27.9178 12.2566 30.7164 14.32 32.7797L16.44 34.8997L32 50.4597L47.56 34.8997L49.68 32.7797C50.702 31.7582 51.5127 30.5454 52.0658 29.2105C52.6189 27.8755 52.9036 26.4447 52.9036 24.9997C52.9036 23.5548 52.6189 22.124 52.0658 20.789C51.5127 19.4541 50.702 18.2413 49.68 17.2197Z" stroke="#427AC6" stroke-width="1.6" stroke-linecap="round" stroke-linejoin="round"/>
</svg>
