<svg width="216" height="40" viewBox="0 0 216 40" fill="none" xmlns="http://www.w3.org/2000/svg">
<path d="M17.1875 20C17.1875 20.0829 17.1546 20.1624 17.096 20.221C17.0374 20.2796 16.9579 20.3125 16.875 20.3125C16.7921 20.3125 16.7126 20.2796 16.654 20.221C16.5954 20.1624 16.5625 20.0829 16.5625 20C16.5625 19.9171 16.5954 19.8376 16.654 19.779C16.7126 19.7204 16.7921 19.6875 16.875 19.6875C16.9579 19.6875 17.0374 19.7204 17.096 19.779C17.1546 19.8376 17.1875 19.9171 17.1875 20ZM17.1875 20H16.875M20.3125 20C20.3125 20.0829 20.2796 20.1624 20.221 20.221C20.1624 20.2796 20.0829 20.3125 20 20.3125C19.9171 20.3125 19.8376 20.2796 19.779 20.221C19.7204 20.1624 19.6875 20.0829 19.6875 20C19.6875 19.9171 19.7204 19.8376 19.779 19.779C19.8376 19.7204 19.9171 19.6875 20 19.6875C20.0829 19.6875 20.1624 19.7204 20.221 19.779C20.2796 19.8376 20.3125 19.9171 20.3125 20ZM20.3125 20H20M23.4375 20C23.4375 20.0829 23.4046 20.1624 23.346 20.221C23.2874 20.2796 23.2079 20.3125 23.125 20.3125C23.0421 20.3125 22.9626 20.2796 22.904 20.221C22.8454 20.1624 22.8125 20.0829 22.8125 20C22.8125 19.9171 22.8454 19.8376 22.904 19.779C22.9626 19.7204 23.0421 19.6875 23.125 19.6875C23.2079 19.6875 23.2874 19.7204 23.346 19.779C23.4046 19.8376 23.4375 19.9171 23.4375 20ZM23.4375 20H23.125M27.5 20C27.5 23.7967 24.1417 26.875 20 26.875C19.281 26.8759 18.565 26.7814 17.8708 26.5942C16.8923 27.2824 15.6986 27.5951 14.5083 27.475C14.376 27.4622 14.2442 27.4442 14.1133 27.4208C14.5241 26.9368 14.8046 26.356 14.9283 25.7333C15.0033 25.3525 14.8175 24.9825 14.5392 24.7117C13.275 23.4817 12.5 21.8242 12.5 20C12.5 16.2033 15.8583 13.125 20 13.125C24.1417 13.125 27.5 16.2033 27.5 20Z" stroke="black" stroke-width="1.6" stroke-linecap="round" stroke-linejoin="round"/>
<path d="M64.0469 27.2656H62.8125V13.375H64.0469V27.2656ZM60.8438 15.9062H59.2656V22.5938C60.1094 22.5365 60.875 22.4635 61.5625 22.375L61.6406 23.2969C60.2969 23.5052 58.9036 23.6432 57.4609 23.7109C56.0182 23.7786 54.4271 23.8177 52.6875 23.8281L52.5469 22.7812L54.4688 22.7734V15.9062H52.9062V14.8906H60.8438V15.9062ZM55.6719 22.75C56.375 22.7344 57.1719 22.7057 58.0625 22.6641V15.9062H55.6719V22.75ZM77.6094 21.0781H68.0156V14.6719H77.4688V15.6875H69.2344V20.0625H77.6094V21.0781ZM79.1094 25.375H66.3906V24.3438H79.1094V25.375ZM82.0156 16.4688H85.1094V14.2656H86.2656V20.7344H80.8594V14.2656H82.0156V16.4688ZM85.1094 19.7188V17.4531H82.0156V19.7188H85.1094ZM92.0156 21.7188H90.8438V18.0156H89V21.6406H87.8438V13.6562H89V17H90.8438V13.3906H92.0156V21.7188ZM92.0156 27.2656H90.8125V23.5781H82.6562V22.5625H92.0156V27.2656Z" fill="black"/>
</svg>
