<svg width="216" height="40" viewBox="0 0 216 40" fill="none" xmlns="http://www.w3.org/2000/svg">
<path d="M12.5 20.8333C12.5 20.6123 12.5878 20.4004 12.7441 20.2441C12.9004 20.0878 13.1123 20 13.3333 20H16.6667C16.8877 20 17.0996 20.0878 17.2559 20.2441C17.4122 20.4004 17.5 20.6123 17.5 20.8333V25.8333C17.5 26.0543 17.4122 26.2663 17.2559 26.4226C17.0996 26.5789 16.8877 26.6667 16.6667 26.6667H13.3333C13.1123 26.6667 12.9004 26.5789 12.7441 26.4226C12.5878 26.2663 12.5 26.0543 12.5 25.8333V20.8333Z" stroke="black" stroke-width="1.6" stroke-linecap="round" stroke-linejoin="round"/>
<path d="M17.5 17.4993C17.5 17.2783 17.5878 17.0664 17.7441 16.9101C17.9004 16.7538 18.1123 16.666 18.3333 16.666H21.6667C21.8877 16.666 22.0996 16.7538 22.2559 16.9101C22.4122 17.0664 22.5 17.2783 22.5 17.4993V25.8327C22.5 26.0537 22.4122 26.2657 22.2559 26.4219C22.0996 26.5782 21.8877 26.666 21.6667 26.666H18.3333C18.1123 26.666 17.9004 26.5782 17.7441 26.4219C17.5878 26.2657 17.5 26.0537 17.5 25.8327V17.4993Z" stroke="black" stroke-width="1.6" stroke-linecap="round" stroke-linejoin="round"/>
<path d="M22.5 14.1663C22.5 13.9453 22.5878 13.7334 22.7441 13.5771C22.9004 13.4208 23.1123 13.333 23.3333 13.333H26.6667C26.8877 13.333 27.0996 13.4208 27.2559 13.5771C27.4122 13.7334 27.5 13.9453 27.5 14.1663V25.833C27.5 26.054 27.4122 26.266 27.2559 26.4223C27.0996 26.5785 26.8877 26.6663 26.6667 26.6663H23.3333C23.1123 26.6663 22.9004 26.5785 22.7441 26.4223C22.5878 26.266 22.5 26.054 22.5 25.833V14.1663Z" stroke="black" stroke-width="1.6" stroke-linecap="round" stroke-linejoin="round"/>
<path d="M13.3335 26.666H25.0002" stroke="black" stroke-width="1.6" stroke-linecap="round" stroke-linejoin="round"/>
<path d="M57.3438 15.5625C57.3385 16.2135 57.4792 16.8359 57.7656 17.4297C58.0521 18.0182 58.4557 18.5339 58.9766 18.9766C59.5026 19.4193 60.1042 19.7552 60.7812 19.9844L60.0938 20.9375C59.3229 20.6458 58.6484 20.2266 58.0703 19.6797C57.4922 19.1328 57.0547 18.4948 56.7578 17.7656C56.4609 18.599 56.0052 19.3281 55.3906 19.9531C54.776 20.5729 54.0521 21.0417 53.2188 21.3594L52.5469 20.3594C53.2552 20.1094 53.8776 19.75 54.4141 19.2812C54.9557 18.8073 55.375 18.2552 55.6719 17.625C55.9688 16.9896 56.1198 16.3177 56.125 15.6094V14.1719H57.3438V15.5625ZM64.0781 21.6094H62.8438V17.375H59.75V16.3594H62.8438V13.375H64.0781V21.6094ZM59.4688 22.0156C60.4323 22.0156 61.263 22.1198 61.9609 22.3281C62.6589 22.5312 63.1927 22.8307 63.5625 23.2266C63.9375 23.6172 64.125 24.0885 64.125 24.6406C64.125 25.1875 63.9375 25.6536 63.5625 26.0391C63.1927 26.4297 62.6589 26.7266 61.9609 26.9297C61.263 27.1328 60.4323 27.2344 59.4688 27.2344C58.5052 27.2344 57.6745 27.1328 56.9766 26.9297C56.2786 26.7266 55.7422 26.4297 55.3672 26.0391C54.9974 25.6536 54.8125 25.1875 54.8125 24.6406C54.8125 24.0885 54.9974 23.6172 55.3672 23.2266C55.7422 22.8307 56.2786 22.5312 56.9766 22.3281C57.6745 22.1198 58.5052 22.0156 59.4688 22.0156ZM59.4688 22.9844C58.7656 22.9844 58.1536 23.0521 57.6328 23.1875C57.112 23.3177 56.7135 23.5078 56.4375 23.7578C56.1615 24.0078 56.026 24.3021 56.0312 24.6406C56.026 24.9688 56.1615 25.2552 56.4375 25.5C56.7135 25.7396 57.112 25.9245 57.6328 26.0547C58.1536 26.1849 58.7656 26.25 59.4688 26.25C60.1719 26.25 60.7812 26.1849 61.2969 26.0547C61.8177 25.9245 62.2161 25.7396 62.4922 25.5C62.7682 25.2552 62.9062 24.9688 62.9062 24.6406C62.9062 24.3021 62.7682 24.0078 62.4922 23.7578C62.2161 23.5078 61.8177 23.3177 61.2969 23.1875C60.7812 23.0521 60.1719 22.9844 59.4688 22.9844ZM71.2188 15.9375C71.2188 16.5365 71.362 17.1172 71.6484 17.6797C71.9349 18.237 72.3359 18.7344 72.8516 19.1719C73.3724 19.6042 73.9688 19.9375 74.6406 20.1719L74 21.1406C73.224 20.8594 72.5417 20.4427 71.9531 19.8906C71.3698 19.3385 70.9271 18.7031 70.625 17.9844C70.3229 18.7865 69.8646 19.4922 69.25 20.1016C68.6354 20.7109 67.9167 21.1667 67.0938 21.4688L66.4531 20.5C67.1302 20.2552 67.737 19.901 68.2734 19.4375C68.8099 18.9688 69.2292 18.4323 69.5312 17.8281C69.8333 17.2188 69.9844 16.5938 69.9844 15.9531V15.3438H66.8438V14.3438H74.3281V15.3438H71.2188V15.9375ZM77.9062 27.2656H76.6719V23.4531H68.5625V22.4375H77.9062V27.2656ZM77.9062 21.7031H76.6719V18.0469H73.8906V17.0156H76.6719V13.375H77.9062V21.7031Z" fill="black"/>
</svg>
