<svg width="99" height="48" viewBox="0 0 99 48" fill="none" xmlns="http://www.w3.org/2000/svg">
<rect y="12" width="24" height="24" rx="6" fill="#4B89DC"/>
<path d="M4 26.4073C4 27.3602 4.38893 28.274 5.08123 28.9477C5.77352 29.6215 6.71248 30 7.69154 30H16.9204C17.6405 30.0008 18.3381 29.7556 18.8916 29.3073C19.4451 28.859 19.8194 28.2359 19.9494 27.5466C20.0795 26.8573 19.9569 26.1454 19.603 25.5351C19.2492 24.9247 18.6865 24.4544 18.0131 24.2063C18.1653 23.7849 18.1934 23.3305 18.0943 22.8944C17.9952 22.4583 17.7727 22.0579 17.4521 21.7384C17.1314 21.4188 16.7253 21.1929 16.2797 21.0862C15.8341 20.9794 15.3667 20.996 14.9302 21.1341C14.648 20.0803 13.9553 19.1748 12.999 18.6093C12.0426 18.0438 10.8977 17.8628 9.80656 18.1046C8.71546 18.3464 7.7639 18.992 7.15338 19.9047C6.54286 20.8173 6.32132 21.9255 6.53568 22.9943C5.79771 23.2311 5.15534 23.6885 4.70005 24.3013C4.24476 24.9141 3.99978 25.6511 4 26.4073Z" fill="white"/>
<path d="M45.0078 21.75C44.8906 21.0859 44.6445 20.5117 44.2695 20.0273C43.8945 19.543 43.418 19.1758 42.8398 18.9258C42.2695 18.668 41.6406 18.5391 40.9531 18.5391C40.0156 18.5391 39.1914 18.7734 38.4805 19.2422C37.7695 19.7031 37.2148 20.3828 36.8164 21.2812C36.418 22.1797 36.2188 23.2578 36.2188 24.5156C36.2188 25.7812 36.418 26.8633 36.8164 27.7617C37.2148 28.6602 37.7695 29.3398 38.4805 29.8008C39.1992 30.2617 40.0234 30.4922 40.9531 30.4922C41.625 30.4922 42.2422 30.3711 42.8047 30.1289C43.375 29.8789 43.8516 29.5195 44.2344 29.0508C44.6172 28.582 44.875 28.0234 45.0078 27.375H48.0781C47.9219 28.4688 47.5273 29.4609 46.8945 30.3516C46.2695 31.2422 45.4414 31.9453 44.4102 32.4609C43.3789 32.9766 42.2109 33.2344 40.9062 33.2344C39.4141 33.2344 38.0781 32.8867 36.8984 32.1914C35.7266 31.4883 34.8086 30.4805 34.1445 29.168C33.4805 27.8477 33.1484 26.2969 33.1484 24.5156C33.1484 22.7266 33.4805 21.1758 34.1445 19.8633C34.8164 18.5508 35.7383 17.5469 36.9102 16.8516C38.0898 16.1484 39.4219 15.7969 40.9062 15.7969C42.1562 15.7969 43.293 16.0352 44.3164 16.5117C45.3398 16.9805 46.1797 17.6641 46.8359 18.5625C47.4922 19.4531 47.9062 20.5156 48.0781 21.75H45.0078ZM65.8438 24.5156C65.8438 26.3047 65.5078 27.8555 64.8359 29.168C64.1641 30.4805 63.2383 31.4883 62.0586 32.1914C60.8867 32.8867 59.5547 33.2344 58.0625 33.2344C56.5703 33.2344 55.2344 32.8867 54.0547 32.1914C52.8828 31.4883 51.9609 30.4805 51.2891 29.168C50.6172 27.8477 50.2812 26.2969 50.2812 24.5156C50.2812 22.7266 50.6172 21.1758 51.2891 19.8633C51.9609 18.5508 52.8828 17.5469 54.0547 16.8516C55.2344 16.1484 56.5703 15.7969 58.0625 15.7969C59.5547 15.7969 60.8867 16.1484 62.0586 16.8516C63.2383 17.5469 64.1641 18.5508 64.8359 19.8633C65.5078 21.1758 65.8438 22.7266 65.8438 24.5156ZM62.7734 24.5156C62.7734 23.25 62.5742 22.1719 62.1758 21.2812C61.7852 20.3828 61.2344 19.7031 60.5234 19.2422C59.8125 18.7734 58.9922 18.5391 58.0625 18.5391C57.1328 18.5391 56.3125 18.7734 55.6016 19.2422C54.8906 19.7031 54.3359 20.3828 53.9375 21.2812C53.5469 22.1719 53.3516 23.25 53.3516 24.5156C53.3516 25.7812 53.5469 26.8633 53.9375 27.7617C54.3359 28.6523 54.8906 29.332 55.6016 29.8008C56.3125 30.2617 57.1328 30.4922 58.0625 30.4922C58.9922 30.4922 59.8125 30.2617 60.5234 29.8008C61.2344 29.332 61.7852 28.6523 62.1758 27.7617C62.5742 26.8633 62.7734 25.7812 62.7734 24.5156ZM77.7969 20.6953C77.7266 19.9766 77.4023 19.4141 76.8242 19.0078C76.2539 18.6016 75.5078 18.3984 74.5859 18.3984C73.9609 18.3984 73.4141 18.4922 72.9453 18.6797C72.4766 18.8672 72.1172 19.1289 71.8672 19.4648C71.6172 19.8008 71.4922 20.1797 71.4922 20.6016C71.4922 21.25 71.7617 21.7539 72.3008 22.1133C72.8398 22.4648 73.5391 22.7422 74.3984 22.9453L75.9922 23.3672C77.4531 23.7031 78.6445 24.2617 79.5664 25.043C80.4961 25.8164 80.9609 26.8828 80.9609 28.2422C80.9609 29.2344 80.707 30.1094 80.1992 30.8672C79.6914 31.625 78.9531 32.2148 77.9844 32.6367C77.0234 33.0508 75.875 33.2578 74.5391 33.2578C73.2188 33.2578 72.0742 33.0547 71.1055 32.6484C70.1367 32.2344 69.3789 31.6367 68.832 30.8555C68.293 30.0664 68 29.1172 67.9531 28.0078H70.9531C71.0234 28.8672 71.3828 29.5234 72.0312 29.9766C72.6875 30.4297 73.5156 30.6562 74.5156 30.6562C75.1797 30.6562 75.7695 30.5547 76.2852 30.3516C76.8008 30.1484 77.1992 29.8633 77.4805 29.4961C77.7695 29.1211 77.9141 28.6953 77.9141 28.2188C77.9141 27.6016 77.6562 27.1211 77.1406 26.7773C76.6328 26.4258 75.8672 26.1172 74.8438 25.8516L72.9219 25.3594C69.9062 24.5703 68.3984 23.0469 68.3984 20.7891C68.3984 19.8047 68.668 18.9375 69.207 18.1875C69.7461 17.4297 70.4883 16.8438 71.4336 16.4297C72.3867 16.0078 73.4531 15.7969 74.6328 15.7969C75.8203 15.7969 76.8711 16.0078 77.7852 16.4297C78.707 16.8438 79.4219 17.4219 79.9297 18.1641C80.4453 18.9062 80.7109 19.75 80.7266 20.6953H77.7969ZM85.7656 16.0312L89.9375 23.5312H90.1016L94.2734 16.0312H97.7188L91.5547 26.6484V33H88.5078V26.6484L82.3203 16.0312H85.7656Z" fill="black"/>
</svg>
