<svg width="216" height="40" viewBox="0 0 216 40" fill="none" xmlns="http://www.w3.org/2000/svg">
<path d="M11.875 19.9996L19.3367 12.5371C19.7033 12.1712 20.2967 12.1712 20.6625 12.5371L28.125 19.9996M13.75 18.1246V26.5621C13.75 27.0796 14.17 27.4996 14.6875 27.4996H18.125V23.4371C18.125 22.9196 18.545 22.4996 19.0625 22.4996H20.9375C21.455 22.4996 21.875 22.9196 21.875 23.4371V27.4996H25.3125C25.83 27.4996 26.25 27.0796 26.25 26.5621V18.1246M16.875 27.4996H23.75" stroke="black" stroke-width="1.6" stroke-linecap="round" stroke-linejoin="round"/>
<path d="M63.6719 27.0781H54.1094V23.1094H63.6719V27.0781ZM55.3281 26.125H62.4688V24.0625H55.3281V26.125ZM64.4844 15.5H53.2188V14.5469H58.2812V13.1719H59.5V14.5469H64.4844V15.5ZM58.8906 16.0625C60.3438 16.0729 61.4557 16.2448 62.2266 16.5781C63.0026 16.9062 63.3906 17.3906 63.3906 18.0312C63.3906 18.6354 63.0573 19.1016 62.3906 19.4297C61.724 19.7578 60.7604 19.9453 59.5 19.9922V21.0625H65.2188V22.0469H52.5625V21.0625H58.2812V19.9922C57.0156 19.9453 56.0469 19.7578 55.375 19.4297C54.7083 19.1016 54.375 18.6354 54.375 18.0312C54.375 17.3906 54.763 16.9062 55.5391 16.5781C56.3203 16.2448 57.4375 16.0729 58.8906 16.0625ZM58.8906 16.9219C57.8542 16.9323 57.0599 17.0312 56.5078 17.2188C55.9557 17.4062 55.6823 17.6771 55.6875 18.0312C55.6771 18.3854 55.9531 18.6589 56.5156 18.8516C57.0781 19.0443 57.8698 19.1406 58.8906 19.1406C59.9062 19.1406 60.6927 19.0443 61.25 18.8516C61.8125 18.6589 62.0938 18.3854 62.0938 18.0312C62.0938 17.6771 61.8151 17.4062 61.2578 17.2188C60.7057 17.0312 59.9167 16.9323 58.8906 16.9219Z" fill="black"/>
</svg>
