<svg width="126" height="61" viewBox="0 0 126 61" fill="none" xmlns="http://www.w3.org/2000/svg">
<rect x="0.998047" y="1.1377" width="124" height="59" rx="5.5" stroke="#4B89DC"/>
<path d="M35.4922 36.251H21.0781V34.8447H27.4238V32.085H22.8359V27.0752H32.082V24.8604H22.8008V23.4893H33.7344V28.4111H24.4883V30.7139H34.1035V32.085H29.0762V34.8447H35.4922V36.251ZM49.1152 25.6689C49.1152 26.5889 49.1035 27.3857 49.0801 28.0596C49.0625 28.7334 49.0127 29.5127 48.9307 30.3975C48.8486 31.2764 48.7168 32.2373 48.5352 33.2803L46.8301 33.1221C47.0234 32.1494 47.167 31.2295 47.2607 30.3623C47.3545 29.4951 47.4102 28.7246 47.4277 28.0508C47.4512 27.3711 47.4629 26.5771 47.4629 25.6689V25.3525H38.1816V23.9814H49.1152V25.6689ZM50.9961 35.8994H36.6348V34.5107H50.9961V35.8994ZM65.252 33.8428H63.582V22.3994H65.252V33.8428ZM65.7266 37.7979H54.9512V32.6826H56.6387V36.4443H65.7266V37.7979ZM56.709 23.4541C57.4941 23.4541 58.2031 23.6211 58.8359 23.9551C59.4746 24.2891 59.9756 24.752 60.3389 25.3438C60.708 25.9355 60.8926 26.6064 60.8926 27.3564C60.8926 28.1182 60.708 28.7979 60.3389 29.3955C59.9756 29.9873 59.4746 30.4502 58.8359 30.7842C58.2031 31.1123 57.4941 31.2764 56.709 31.2764C55.9238 31.2764 55.2119 31.1123 54.5732 30.7842C53.9346 30.4502 53.4307 29.9844 53.0615 29.3867C52.6924 28.7891 52.5078 28.1123 52.5078 27.3564C52.5078 26.6064 52.6924 25.9355 53.0615 25.3438C53.4307 24.752 53.9346 24.2891 54.5732 23.9551C55.2119 23.6211 55.9238 23.4541 56.709 23.4541ZM56.709 24.9131C56.2227 24.9131 55.7832 25.0186 55.3906 25.2295C55.0039 25.4346 54.6992 25.7217 54.4766 26.0908C54.2539 26.46 54.1426 26.8818 54.1426 27.3564C54.1426 27.8428 54.251 28.2734 54.4678 28.6484C54.6904 29.0176 54.9951 29.3047 55.3818 29.5098C55.7744 29.7148 56.2168 29.8174 56.709 29.8174C57.1895 29.8174 57.623 29.7148 58.0098 29.5098C58.3965 29.3047 58.7012 29.0146 58.9238 28.6396C59.1465 28.2646 59.2578 27.8369 59.2578 27.3564C59.2578 26.8877 59.1465 26.4688 58.9238 26.0996C58.7012 25.7246 58.3936 25.4346 58.001 25.2295C57.6143 25.0186 57.1836 24.9131 56.709 24.9131Z" fill="#4B89DC"/>
<path d="M91.248 30.6377H101.748" stroke="#4B89DC" stroke-width="1.6" stroke-linecap="round" stroke-linejoin="round"/>
<path d="M97.248 35.1377L101.748 30.6377" stroke="#4B89DC" stroke-width="1.6" stroke-linecap="round" stroke-linejoin="round"/>
<path d="M97.248 26.1377L101.748 30.6377" stroke="#4B89DC" stroke-width="1.6" stroke-linecap="round" stroke-linejoin="round"/>
</svg>
