<svg width="141" height="61" viewBox="0 0 141 61" fill="none" xmlns="http://www.w3.org/2000/svg">
<rect x="-0.00256348" y="0.787109" width="141" height="60" rx="6" fill="#4B89DC"/>
<path d="M42.9916 36.4004H28.5775V34.9941H34.9232V32.2344H30.3353V27.2246H39.5814V25.0098H30.3002V23.6387H41.2338V28.5605H31.9877V30.8633H41.6029V32.2344H36.5756V34.9941H42.9916V36.4004ZM56.6146 25.8184C56.6146 26.7383 56.6029 27.5352 56.5795 28.209C56.5619 28.8828 56.5121 29.6621 56.4301 30.5469C56.348 31.4258 56.2162 32.3867 56.0345 33.4297L54.3295 33.2715C54.5228 32.2988 54.6664 31.3789 54.7601 30.5117C54.8539 29.6445 54.9095 28.874 54.9271 28.2002C54.9506 27.5205 54.9623 26.7266 54.9623 25.8184V25.502H45.681V24.1309H56.6146V25.8184ZM58.4955 36.0488H44.1342V34.6602H58.4955V36.0488ZM72.7513 33.9922H71.0814V22.5488H72.7513V33.9922ZM73.226 37.9473H62.4506V32.832H64.1381V36.5938H73.226V37.9473ZM64.2084 23.6035C64.9935 23.6035 65.7025 23.7705 66.3353 24.1045C66.974 24.4385 67.475 24.9014 67.8383 25.4932C68.2074 26.085 68.392 26.7559 68.392 27.5059C68.392 28.2676 68.2074 28.9473 67.8383 29.5449C67.475 30.1367 66.974 30.5996 66.3353 30.9336C65.7025 31.2617 64.9935 31.4258 64.2084 31.4258C63.4232 31.4258 62.7113 31.2617 62.0726 30.9336C61.434 30.5996 60.9301 30.1338 60.5609 29.5361C60.1918 28.9385 60.0072 28.2617 60.0072 27.5059C60.0072 26.7559 60.1918 26.085 60.5609 25.4932C60.9301 24.9014 61.434 24.4385 62.0726 24.1045C62.7113 23.7705 63.4232 23.6035 64.2084 23.6035ZM64.2084 25.0625C63.722 25.0625 63.2826 25.168 62.89 25.3789C62.5033 25.584 62.1986 25.8711 61.976 26.2402C61.7533 26.6094 61.642 27.0312 61.642 27.5059C61.642 27.9922 61.7504 28.4229 61.9672 28.7979C62.1898 29.167 62.4945 29.4541 62.8812 29.6592C63.2738 29.8643 63.7162 29.9668 64.2084 29.9668C64.6888 29.9668 65.1224 29.8643 65.5092 29.6592C65.8959 29.4541 66.2006 29.1641 66.4232 28.7891C66.6459 28.4141 66.7572 27.9863 66.7572 27.5059C66.7572 27.0371 66.6459 26.6182 66.4232 26.249C66.2006 25.874 65.8929 25.584 65.5004 25.3789C65.1136 25.168 64.683 25.0625 64.2084 25.0625Z" fill="white"/>
<path d="M98.7474 30.7871H109.247" stroke="white" stroke-width="1.6" stroke-linecap="round" stroke-linejoin="round"/>
<path d="M104.747 35.2871L109.247 30.7871" stroke="white" stroke-width="1.6" stroke-linecap="round" stroke-linejoin="round"/>
<path d="M104.747 26.2871L109.247 30.7871" stroke="white" stroke-width="1.6" stroke-linecap="round" stroke-linejoin="round"/>
</svg>
