<svg width="512" height="135" viewBox="0 0 512 135" fill="none" xmlns="http://www.w3.org/2000/svg">
<g filter="url(#filter0_d_345_12169)">
<path d="M3.99707 63.6983C3.99707 69.0977 6.16049 74.2759 10.0114 78.0938C13.8623 81.9117 19.0852 84.0566 24.5313 84.0566H75.8667C79.8724 84.0609 83.7526 82.6719 86.8315 80.1314C89.9104 77.591 91.9927 74.0602 92.7159 70.1541C93.439 66.248 92.7571 62.2142 90.7889 58.7553C88.8207 55.2964 85.6909 52.6317 81.9448 51.2254C82.7916 48.8377 82.9481 46.2629 82.3966 43.7917C81.8452 41.3205 80.6078 39.0514 78.8241 37.2408C77.0405 35.4301 74.7818 34.1499 72.303 33.5448C69.8242 32.9398 67.2241 33.034 64.7965 33.8167C63.2263 27.8451 59.3735 22.7137 54.0538 19.5094C48.7341 16.3051 42.3653 15.2794 36.296 16.6495C30.2268 18.0196 24.9338 21.6779 21.5378 26.8497C18.1417 32.0216 16.9094 38.3009 18.1018 44.3579C13.9968 45.6996 10.4236 48.2914 7.89109 51.764C5.35855 55.2366 3.99585 59.413 3.99707 63.6983Z" fill="#4B89DC"/>
<path d="M159.247 40.6504C158.31 33.7129 153.341 29.3066 145.747 29.3066C135.716 29.3066 129.622 36.9004 129.622 50.1191C129.622 63.8066 135.903 70.9316 145.653 70.9316C152.966 70.9316 158.028 66.9941 159.247 60.3379L175.372 60.4316C174.06 72.5254 163.747 84.9941 145.372 84.9941C126.997 84.9941 113.31 72.4316 113.31 50.1191C113.31 27.7129 127.278 15.2441 145.372 15.2441C161.685 15.2441 173.685 24.4316 175.372 40.6504H159.247ZM248.31 50.1191C248.31 72.5254 234.247 84.9941 216.06 84.9941C197.778 84.9941 183.81 72.4316 183.81 50.1191C183.81 27.7129 197.778 15.2441 216.06 15.2441C234.247 15.2441 248.31 27.7129 248.31 50.1191ZM231.997 50.1191C231.997 36.6191 225.997 29.3066 216.06 29.3066C206.122 29.3066 200.122 36.6191 200.122 50.1191C200.122 63.6191 206.122 70.9316 216.06 70.9316C225.997 70.9316 231.997 63.6191 231.997 50.1191ZM294.435 36.3379C294.06 31.3691 290.403 28.4629 283.841 28.4629C277.372 28.4629 274.091 31.2754 273.997 35.1191C273.903 39.3379 278.028 41.4004 284.122 42.7129L290.028 44.1191C303.06 47.0254 310.653 53.4941 310.747 64.3691C310.653 77.2129 300.716 84.9941 283.841 84.9941C266.966 84.9941 255.997 77.3066 255.716 61.7441H271.091C271.466 68.3066 276.341 71.6816 283.653 71.6816C290.403 71.6816 294.435 68.6816 294.528 64.3691C294.435 60.4316 290.966 58.3691 283.466 56.6816L276.341 54.9941C264.622 52.2754 257.497 46.4629 257.497 36.2441C257.403 23.6816 268.56 15.2441 283.935 15.2441C299.591 15.2441 309.622 23.7754 309.81 36.3379H294.435ZM315.435 16.1816H333.341L347.966 44.6816H348.528L363.153 16.1816H380.966L356.216 61.0879V84.0566H340.278V61.0879L315.435 16.1816Z" fill="#121212"/>
<path d="M270.353 105.838V107.557H259.884V105.838H264.044V104.061H266.212V105.838H270.353ZM265.118 108.24C267.677 108.24 269.415 109.529 269.435 111.463C269.415 113.396 267.677 114.686 265.118 114.686C262.56 114.686 260.782 113.396 260.782 111.463C260.782 109.529 262.56 108.24 265.118 108.24ZM265.118 109.881C263.771 109.881 262.892 110.467 262.892 111.463C262.892 112.459 263.771 113.025 265.118 113.006C266.466 113.025 267.364 112.459 267.364 111.463C267.364 110.467 266.466 109.881 265.118 109.881ZM273.79 104.139V108.826H276.251V110.604H273.79V115.193H271.622V104.139H273.79ZM273.79 116.014V121.795H271.622V117.752H262.032V116.014H273.79ZM282.657 107.42C282.657 109.334 283.771 111.248 286.095 112.127L284.942 113.787C283.37 113.182 282.276 112.059 281.642 110.682C280.997 112.264 279.845 113.611 278.165 114.314L276.993 112.654C279.415 111.58 280.548 109.373 280.567 107.42V105.232H282.657V107.42ZM292.247 104.158V114.979H290.177V110.389H288.419V114.432H286.388V104.49H288.419V108.611H290.177V104.158H292.247ZM286.29 115.271C289.981 115.271 292.325 116.482 292.345 118.514C292.325 120.545 289.981 121.775 286.29 121.775C282.56 121.775 280.235 120.545 280.235 118.514C280.235 116.482 282.56 115.271 286.29 115.271ZM286.29 116.912C283.849 116.912 282.403 117.479 282.403 118.514C282.403 119.568 283.849 120.115 286.29 120.115C288.712 120.115 290.157 119.568 290.157 118.514C290.157 117.479 288.712 116.912 286.29 116.912ZM305.646 106.678C305.626 109.08 307.032 111.268 309.806 112.146L308.634 113.846C306.71 113.172 305.362 111.893 304.61 110.213C303.829 112.137 302.354 113.65 300.216 114.393L299.063 112.635C301.993 111.678 303.458 109.314 303.458 106.775V105.096H305.646V106.678ZM313.966 104.139V114.529H311.798V109.334H308.282V107.557H311.798V104.139H313.966ZM307.989 114.998C311.739 114.998 314.024 116.248 314.024 118.396C314.024 120.545 311.739 121.775 307.989 121.775C304.259 121.775 301.974 120.545 301.993 118.396C301.974 116.248 304.259 114.998 307.989 114.998ZM307.989 116.678C305.528 116.678 304.142 117.283 304.142 118.396C304.142 119.471 305.528 120.076 307.989 120.076C310.45 120.076 311.856 119.471 311.856 118.396C311.856 117.283 310.45 116.678 307.989 116.678ZM322.95 107.166C322.95 109.314 324.376 111.482 327.11 112.4L326.017 114.08C324.044 113.436 322.647 112.098 321.876 110.447C321.104 112.293 319.63 113.777 317.54 114.471L316.427 112.752C319.239 111.834 320.743 109.49 320.743 107.186V106.951H317.071V105.213H326.603V106.951H322.95V107.166ZM331.251 115.506V121.795H329.083V117.244H319.22V115.506H331.251ZM331.251 104.139V114.666H329.083V110.291H326.075V108.514H329.083V104.139H331.251ZM347.911 105.232V112.576H339.396V105.232H347.911ZM341.544 106.951V110.877H345.763V106.951H341.544ZM353.165 104.139V114.197H351.017V104.139H353.165ZM353.536 115.232V116.873H348.497C348.702 118.24 350.821 119.744 354.2 120.076L353.458 121.736C350.597 121.443 348.429 120.311 347.364 118.846C346.261 120.33 344.073 121.424 341.192 121.736L340.45 120.076C343.829 119.783 345.997 118.279 346.192 116.873H341.173V115.232H346.251V113.689H348.438V115.232H353.536ZM366.778 106.951C366.778 109.178 368.224 111.268 370.938 112.127L369.767 113.826C367.862 113.182 366.495 111.893 365.743 110.252C364.962 112.127 363.536 113.602 361.505 114.314L360.333 112.615C363.185 111.619 364.591 109.275 364.61 106.756V105.076H366.778V106.951ZM374.454 104.139V108.436H376.915V110.232H374.454V114.705H372.286V104.139H374.454ZM368.712 115.096C372.364 115.076 374.61 116.326 374.63 118.416C374.61 120.545 372.364 121.775 368.712 121.775C365.021 121.775 362.735 120.545 362.735 118.416C362.735 116.326 365.021 115.076 368.712 115.096ZM368.712 116.795C366.29 116.795 364.903 117.381 364.903 118.416C364.903 119.51 366.29 120.057 368.712 120.057C371.134 120.057 372.481 119.51 372.481 118.416C372.481 117.381 371.134 116.795 368.712 116.795ZM391.739 104.139V108.24H394.2V110.037H391.739V114.08H389.571V104.139H391.739ZM386.407 105.271V107.029H380.704V111.541C384.024 111.541 385.87 111.414 387.97 110.994L388.204 112.713C385.899 113.221 383.829 113.299 379.981 113.299H378.556V105.271H386.407ZM391.739 114.881V121.561H380.333V114.881H391.739ZM382.481 116.619V119.842H389.591V116.619H382.481ZM409.708 105.447V106.502C409.688 107.713 409.688 109.451 409.278 111.697L407.13 111.502C407.472 109.676 407.54 108.328 407.579 107.244H400.704V105.447H409.708ZM405.255 109.471V112.986C407.081 112.918 408.956 112.781 410.665 112.537L410.782 114.1C407.11 114.764 402.95 114.822 399.845 114.842L399.649 113.104C400.694 113.094 401.866 113.084 403.106 113.064V109.471H405.255ZM413.927 104.139V109.646H416.212V111.463H413.927V117.361H411.7V104.139H413.927ZM414.493 119.686V121.443H402.286V116.189H404.474V119.686H414.493ZM431.837 104.139V121.814H429.688V104.139H431.837ZM426.407 105.682V112.303H420.333V115.857C423.116 115.838 425.519 115.701 428.263 115.232L428.458 117.01C425.45 117.537 422.813 117.635 419.649 117.635H418.106V110.584H424.2V107.439H418.087V105.682H426.407ZM455.294 117.85V119.666H439.161V117.85H455.294ZM453.888 105.779V107.518H451.31V113.143H453.829V114.861H440.548V113.143H443.028V107.518H440.489V105.779H453.888ZM445.196 113.143H449.161V107.518H445.196V113.143ZM472.579 117.947V119.744H456.446V117.947H463.399V115.076H458.36V109.295H468.517V107.107H458.321V105.35H470.665V111.014H460.528V113.299H471.075V115.076H465.548V117.947H472.579ZM487.774 105.857V107.85C487.774 110.213 487.774 112.654 487.13 116.365L484.923 116.17C485.606 112.693 485.606 110.135 485.606 107.85V107.615H475.431V105.857H487.774ZM489.825 117.596V119.373H473.731V117.596H489.825ZM506.114 104.158V114.607H504.044V110.174H502.208V114.432H500.177V104.49H502.208V108.416H504.044V104.158H506.114ZM506.114 115.35V121.58H494.2V115.35H506.114ZM496.368 117.088V119.822H503.966V117.088H496.368ZM498.458 105.232V110.33H493.868V112.244C495.919 112.225 497.481 112.137 499.278 111.775L499.474 113.494C497.345 113.885 495.548 113.943 492.97 113.924H491.759V108.709H496.368V106.951H491.739V105.232H498.458Z" fill="#121212"/>
</g>
<defs>
<filter id="filter0_d_345_12169" x="-0.00292969" y="0.0566406" width="512" height="134" filterUnits="userSpaceOnUse" color-interpolation-filters="sRGB">
<feFlood flood-opacity="0" result="BackgroundImageFix"/>
<feColorMatrix in="SourceAlpha" type="matrix" values="0 0 0 0 0 0 0 0 0 0 0 0 0 0 0 0 0 0 127 0" result="hardAlpha"/>
<feOffset dy="2"/>
<feGaussianBlur stdDeviation="2"/>
<feComposite in2="hardAlpha" operator="out"/>
<feColorMatrix type="matrix" values="0 0 0 0 0 0 0 0 0 0 0 0 0 0 0 0 0 0 0.38 0"/>
<feBlend mode="normal" in2="BackgroundImageFix" result="effect1_dropShadow_345_12169"/>
<feBlend mode="normal" in="SourceGraphic" in2="effect1_dropShadow_345_12169" result="shape"/>
</filter>
</defs>
</svg>
