<svg width="216" height="40" viewBox="0 0 216 40" fill="none" xmlns="http://www.w3.org/2000/svg">
<path d="M26.63 14.4579C26.247 14.0746 25.7921 13.7706 25.2915 13.5632C24.7909 13.3558 24.2544 13.249 23.7125 13.249C23.1707 13.249 22.6341 13.3558 22.1335 13.5632C21.6329 13.7706 21.1781 14.0746 20.795 14.4579L20 15.2529L19.205 14.4579C18.4313 13.6841 17.3818 13.2494 16.2875 13.2494C15.1933 13.2494 14.1438 13.6841 13.37 14.4579C12.5963 15.2317 12.1616 16.2811 12.1616 17.3754C12.1616 18.4697 12.5963 19.5191 13.37 20.2929L14.165 21.0879L20 26.9229L25.835 21.0879L26.63 20.2929C27.0133 19.9098 27.3173 19.455 27.5247 18.9544C27.7321 18.4538 27.8389 17.9173 27.8389 17.3754C27.8389 16.8335 27.7321 16.297 27.5247 15.7964C27.3173 15.2958 27.0133 14.841 26.63 14.4579Z" stroke="black" stroke-width="1.6" stroke-linecap="round" stroke-linejoin="round"/>
<path d="M57.2031 15.625C57.2031 16.2448 57.349 16.8438 57.6406 17.4219C57.9375 17.9948 58.3464 18.5 58.8672 18.9375C59.3932 19.375 59.9896 19.7083 60.6562 19.9375L59.9844 20.9062C59.2188 20.625 58.5443 20.2109 57.9609 19.6641C57.3776 19.112 56.9323 18.474 56.625 17.75C56.3281 18.5729 55.8802 19.2917 55.2812 19.9062C54.6823 20.5208 53.9792 20.9844 53.1719 21.2969L52.5156 20.3125C53.2031 20.0521 53.8073 19.6823 54.3281 19.2031C54.8542 18.724 55.263 18.1693 55.5547 17.5391C55.8464 16.9036 55.9948 16.2344 56 15.5312V14.0938H57.2031V15.625ZM63.4219 17H65.5156V18.0312H63.4219V21.8281H62.2031V13.375H63.4219V17ZM58.9688 22.1875C59.9167 22.1875 60.7344 22.2865 61.4219 22.4844C62.1094 22.6823 62.6354 22.9714 63 23.3516C63.3646 23.7266 63.5469 24.1771 63.5469 24.7031C63.5469 25.2396 63.3646 25.6979 63 26.0781C62.6354 26.4583 62.1094 26.7448 61.4219 26.9375C60.7396 27.1354 59.9219 27.2344 58.9688 27.2344C58.0156 27.2344 57.1927 27.1354 56.5 26.9375C55.8125 26.7396 55.2839 26.4505 54.9141 26.0703C54.5443 25.6953 54.3594 25.2396 54.3594 24.7031C54.3594 24.1771 54.5443 23.7266 54.9141 23.3516C55.2839 22.9714 55.8151 22.6823 56.5078 22.4844C57.2005 22.2865 58.0208 22.1875 58.9688 22.1875ZM58.9688 23.1719C58.276 23.1719 57.6745 23.2344 57.1641 23.3594C56.6536 23.4792 56.263 23.6562 55.9922 23.8906C55.7214 24.1198 55.5885 24.3906 55.5938 24.7031C55.5885 25.026 55.7214 25.3047 55.9922 25.5391C56.263 25.7734 56.651 25.9505 57.1562 26.0703C57.6667 26.1953 58.2708 26.2604 58.9688 26.2656C60.0312 26.2552 60.862 26.1146 61.4609 25.8438C62.0599 25.5729 62.3594 25.1927 62.3594 24.7031C62.3594 24.3854 62.224 24.112 61.9531 23.8828C61.6823 23.6536 61.2917 23.4792 60.7812 23.3594C60.2708 23.2344 59.6667 23.1719 58.9688 23.1719ZM77.25 16.7812H79.3438V17.8125H77.25V21.2656H76.0312V13.375H77.25V16.7812ZM73.2031 15.3281H68.2656V19.4219H68.7812C70.0417 19.4219 71.0938 19.3906 71.9375 19.3281C72.7865 19.2604 73.6406 19.1406 74.5 18.9688L74.6562 19.9688C73.7188 20.1562 72.7812 20.2812 71.8438 20.3438C70.9062 20.4062 69.6667 20.4375 68.125 20.4375H67.0469V14.3281H73.2031V15.3281ZM77.25 27.0781H68.4844V21.9844H77.25V27.0781ZM69.6875 26.0781H76.0312V22.9844H69.6875V26.0781Z" fill="black"/>
</svg>
