<svg width="40" height="40" viewBox="0 0 40 40" fill="none" xmlns="http://www.w3.org/2000/svg">
<path d="M22.9999 26V26.75C22.9999 27.5456 22.6838 28.3087 22.1212 28.8713C21.5586 29.4339 20.7955 29.75 19.9999 29.75C19.2042 29.75 18.4412 29.4339 17.8785 28.8713C17.3159 28.3087 16.9999 27.5456 16.9999 26.75V26M28.0474 24.4733C26.8436 23 25.9938 22.25 25.9938 18.1883C25.9938 14.4688 24.0944 13.1436 22.5311 12.5C22.3235 12.4147 22.128 12.2187 22.0647 12.0055C21.7905 11.0722 21.0217 10.25 19.9999 10.25C18.978 10.25 18.2088 11.0727 17.9374 12.0064C17.8741 12.222 17.6786 12.4147 17.471 12.5C15.9058 13.1445 14.0083 14.465 14.0083 18.1883C14.006 22.25 13.1561 23 11.9524 24.4733C11.4536 25.0836 11.8905 26 12.7628 26H27.2416C28.1092 26 28.5433 25.0808 28.0474 24.4733Z" stroke="black" stroke-width="1.6" stroke-linecap="round" stroke-linejoin="round"/>
</svg>
