<svg width="141" height="61" viewBox="0 0 141 61" fill="none" xmlns="http://www.w3.org/2000/svg">
<rect x="0.497437" y="1.28711" width="140" height="59" rx="5.5" stroke="#4B89DC"/>
<path d="M33.6029 22.5312V38.2812H31.933V22.5312H33.6029ZM20.6654 33.9922C21.9574 33.9834 23.4427 33.9746 24.9896 33.9219V32.3574C23.1439 32.1201 21.9486 31.0391 21.9662 29.4922C21.9486 27.7168 23.4955 26.5391 25.7806 26.5391C28.0834 26.5391 29.6654 27.7168 29.6654 29.4922C29.6654 31.0215 28.4701 32.0938 26.642 32.3398V33.8691C28.101 33.8076 29.5775 33.6934 30.9662 33.5176L31.0892 34.7656C27.5912 35.3457 23.7767 35.3809 20.8939 35.3809L20.6654 33.9922ZM30.6146 24.4121V25.748H20.9994V24.4121H24.9896V22.5664H26.6595V24.4121H30.6146ZM25.7806 27.8398C24.4623 27.8398 23.5306 28.4902 23.5482 29.4922C23.5306 30.4941 24.4623 31.1094 25.7806 31.1094C27.1342 31.1094 28.0658 30.4941 28.0658 29.4922C28.0658 28.4902 27.1342 27.8398 25.7806 27.8398ZM49.2299 22.5488V34.4844H47.5599V32.9727H44.3959V31.7949H47.5599V22.5488H49.2299ZM49.6166 36.5938V37.9473H38.2435V33.3242H39.8959V36.5938H49.6166ZM36.0638 29.7383C38.9818 29.7207 42.9017 29.6855 46.2592 29.2637L46.3646 30.459C45.0199 30.6787 43.6049 30.8281 42.2162 30.916V33.9922H40.5463V31.0039C39.017 31.0742 37.5492 31.083 36.2748 31.0742L36.0638 29.7383ZM41.2142 23.1465C43.517 23.1465 45.1166 24.2539 45.1166 25.9238C45.1166 27.5938 43.517 28.666 41.2142 28.666C38.8763 28.666 37.2943 27.5938 37.2943 25.9238C37.2943 24.2539 38.8763 23.1465 41.2142 23.1465ZM41.2142 24.3945C39.808 24.377 38.8588 24.9746 38.8763 25.9238C38.8588 26.8555 39.808 27.4355 41.2142 27.4355C42.5677 27.4355 43.517 26.8555 43.5345 25.9238C43.517 24.9746 42.5677 24.377 41.2142 24.3945ZM63.9603 22.5312V28.8066H66.4037V30.1953H63.9603V38.2637H62.2904V22.5312H63.9603ZM59.847 24.1836C59.8295 28.7363 57.8256 32.7969 52.64 35.3633L51.7084 34.0625C55.6547 32.0938 57.7992 29.2461 58.142 25.5723H52.4994V24.1836H59.847ZM80.308 22.5312V30.9863H78.6381V22.5312H80.308ZM71.642 31.7422V33.5176H78.6556V31.7422H80.308V38.0879H70.0072V31.7422H71.642ZM71.642 36.7168H78.6556V34.8359H71.642V36.7168ZM71.765 23.252C74.1732 23.252 75.9486 24.7461 75.9486 26.9082C75.9486 29.0703 74.1732 30.5645 71.765 30.5469C69.3568 30.5645 67.5638 29.0703 67.5638 26.9082C67.5638 24.7461 69.3568 23.252 71.765 23.252ZM71.765 24.6582C70.2709 24.6406 69.1986 25.5723 69.1986 26.9082C69.1986 28.2617 70.2709 29.1758 71.765 29.1758C73.2416 29.1758 74.3138 28.2617 74.3138 26.9082C74.3138 25.5723 73.2416 24.6406 71.765 24.6582Z" fill="#4B89DC"/>
<path d="M106.747 30.7871H117.247" stroke="#4B89DC" stroke-width="1.6" stroke-linecap="round" stroke-linejoin="round"/>
<path d="M112.747 35.2871L117.247 30.7871" stroke="#4B89DC" stroke-width="1.6" stroke-linecap="round" stroke-linejoin="round"/>
<path d="M112.747 26.2871L117.247 30.7871" stroke="#4B89DC" stroke-width="1.6" stroke-linecap="round" stroke-linejoin="round"/>
</svg>
