<svg width="216" height="40" viewBox="0 0 216 40" fill="none" xmlns="http://www.w3.org/2000/svg">
<path d="M20.0001 20.8333C22.3013 20.8333 24.1668 18.9679 24.1668 16.6667C24.1668 14.3655 22.3013 12.5 20.0001 12.5C17.6989 12.5 15.8334 14.3655 15.8334 16.6667C15.8334 18.9679 17.6989 20.8333 20.0001 20.8333Z" stroke="black" stroke-width="1.6" stroke-linecap="round" stroke-linejoin="round"/>
<path d="M26.6668 27.5007C26.6668 25.7325 25.9644 24.0368 24.7141 22.7866C23.4639 21.5364 21.7682 20.834 20.0001 20.834C18.232 20.834 16.5363 21.5364 15.2861 22.7866C14.0358 24.0368 13.3334 25.7325 13.3334 27.5007" stroke="black" stroke-width="1.6" stroke-linecap="round" stroke-linejoin="round"/>
<path d="M60.875 15.875H52.5938V14.875H56.125V13.3125H57.3438V14.875H60.875V15.875ZM56.7344 16.5938C57.3958 16.599 57.9766 16.7057 58.4766 16.9141C58.9818 17.1172 59.3724 17.4089 59.6484 17.7891C59.9297 18.1641 60.0729 18.6042 60.0781 19.1094C60.0729 19.6094 59.9297 20.0495 59.6484 20.4297C59.3724 20.8047 58.9818 21.0964 58.4766 21.3047C57.9766 21.5078 57.3958 21.6094 56.7344 21.6094C56.0729 21.6094 55.487 21.5078 54.9766 21.3047C54.4714 21.0964 54.0781 20.8047 53.7969 20.4297C53.5208 20.0495 53.3854 19.6094 53.3906 19.1094C53.3854 18.6042 53.5208 18.1641 53.7969 17.7891C54.0781 17.4089 54.4714 17.1172 54.9766 16.9141C55.487 16.7057 56.0729 16.599 56.7344 16.5938ZM56.7344 17.5469C56.3021 17.5521 55.9193 17.6198 55.5859 17.75C55.2578 17.8802 55.0026 18.0625 54.8203 18.2969C54.6432 18.5312 54.5573 18.8021 54.5625 19.1094C54.5573 19.4115 54.6432 19.6771 54.8203 19.9062C55.0026 20.1354 55.2578 20.3125 55.5859 20.4375C55.9193 20.5625 56.3021 20.625 56.7344 20.625C57.1615 20.625 57.5391 20.5625 57.8672 20.4375C58.2005 20.3125 58.4583 20.1354 58.6406 19.9062C58.8229 19.6771 58.9167 19.4115 58.9219 19.1094C58.9167 18.8021 58.8229 18.5312 58.6406 18.2969C58.4583 18.0625 58.2005 17.8802 57.8672 17.75C57.5391 17.6198 57.1615 17.5521 56.7344 17.5469ZM63.4219 17.2344H65.5156V18.2656H63.4219V22.0625H62.2031V13.375H63.4219V17.2344ZM63.4219 27.2656H62.2031V23.8281H54.3281V22.8281H63.4219V27.2656ZM70.5312 16.1406C70.5312 16.651 70.6458 17.1536 70.875 17.6484C71.1094 18.1432 71.4427 18.5885 71.875 18.9844C72.3073 19.3802 72.8125 19.6875 73.3906 19.9062L72.75 20.8438C72.0938 20.5885 71.526 20.2266 71.0469 19.7578C70.5729 19.2891 70.2083 18.75 69.9531 18.1406C69.6875 18.8281 69.3073 19.4453 68.8125 19.9922C68.3177 20.5339 67.7396 20.9479 67.0781 21.2344L66.4062 20.2812C67 20.0208 67.5182 19.6667 67.9609 19.2188C68.4089 18.7656 68.7526 18.2708 68.9922 17.7344C69.237 17.1927 69.3594 16.6615 69.3594 16.1406V14.25H70.5312V16.1406ZM78.1875 21.9688H77.0156V18.1406H75.1719V21.5312H74.0156V13.6562H75.1719V17.125H77.0156V13.3906H78.1875V21.9688ZM73.5938 22.2812C74.5521 22.2812 75.3802 22.3802 76.0781 22.5781C76.7812 22.7708 77.3203 23.0547 77.6953 23.4297C78.0755 23.7995 78.2656 24.2448 78.2656 24.7656C78.2656 25.2812 78.0755 25.724 77.6953 26.0938C77.3203 26.4635 76.7812 26.7448 76.0781 26.9375C75.3802 27.1354 74.5521 27.2344 73.5938 27.2344C72.6354 27.2344 71.8047 27.1354 71.1016 26.9375C70.3984 26.7448 69.8594 26.4635 69.4844 26.0938C69.1146 25.724 68.9323 25.2812 68.9375 24.7656C68.9323 24.2448 69.1146 23.7995 69.4844 23.4297C69.8594 23.0547 70.3958 22.7708 71.0938 22.5781C71.7969 22.3802 72.6302 22.2812 73.5938 22.2812ZM73.5938 23.2188C72.8906 23.2188 72.2786 23.2812 71.7578 23.4062C71.237 23.526 70.8385 23.7031 70.5625 23.9375C70.2865 24.1719 70.151 24.4479 70.1562 24.7656C70.151 25.0781 70.2865 25.349 70.5625 25.5781C70.8385 25.8073 71.2344 25.9818 71.75 26.1016C72.2708 26.2214 72.8854 26.2812 73.5938 26.2812C74.2969 26.2812 74.9062 26.2214 75.4219 26.1016C75.9375 25.9818 76.3359 25.8073 76.6172 25.5781C76.8984 25.349 77.0417 25.0781 77.0469 24.7656C77.0417 24.4479 76.8984 24.1719 76.6172 23.9375C76.3359 23.7031 75.9349 23.526 75.4141 23.4062C74.8984 23.2812 74.2917 23.2188 73.5938 23.2188ZM92.9219 22.625H87.125V27.2656H85.9219V22.625H80.2031V21.625H92.9219V22.625ZM83.0469 15.875H90.0469V13.9531H91.2812V19.9375H81.8281V13.9531H83.0469V15.875ZM90.0469 18.9375V16.875H83.0469V18.9375H90.0469Z" fill="black"/>
</svg>
